{"accessors":[{"bufferView":2,"componentType":5126,"count":2441,"max":[1.130126953125,1.9870599508285522,2.6357412338256836],"min":[-1.130126953125,-1.4696650505065918,-1.6120450496673584],"type":"VEC3"},{"bufferView":2,"byteOffset":29292,"componentType":5126,"count":2441,"max":[0.9997674822807312,0.9999242424964905,0.999384880065918],"min":[-0.9997674822807312,-0.9997326135635376,-0.9999933838844299],"type":"VEC3"},{"bufferView":1,"componentType":5126,"count":2441,"max":[0.9874431490898132,0.9899466633796692],"min":[0.013773120939731598,0.011883149854838848],"type":"VEC2"},{"bufferView":0,"componentType":5125,"count":11550,"max":[2440],"min":[0],"type":"SCALAR"}],"asset":{"extras":{"author":"zixisun02 (https://sketchfab.com/dogerlo)","license":"CC-BY-4.0 (http://creativecommons.org/licenses/by/4.0/)","source":"https://sketchfab.com/3d-models/dinosaur-3e12af7c5c354ea6b01bccfb529a9c02","title":"Dinosaur"},"generator":"Sketchfab-10.2.0","version":"2.0"},"bufferViews":[{"buffer":0,"byteLength":46200,"byteOffset":0,"name":"floatBufferViews","target":34963},{"buffer":0,"byteLength":19528,"byteOffset":46200,"byteStride":8,"name":"floatBufferViews","target":34962},{"buffer":0,"byteLength":58584,"byteOffset":65728,"byteStride":12,"name":"floatBufferViews","target":34962}],"buffers":[{"byteLength":124312,"uri":"data:application/octet-stream;base64,"}],"extensionsUsed":["KHR_materials_unlit"],"images":[{"uri":"data:application/octet-stream;base64,"}],"materials":[{"doubleSided":true,"extensions":{"KHR_materials_unlit":{}},"name":"Dino","pbrMetallicRoughness":{"baseColorFactor":[1,1,1,1],"baseColorTexture":{"index":0,"texCoord":0},"metallicFactor":0,"roughnessFactor":1}}],"meshes":[{"name":"Dino_Dino_0","primitives":[{"attributes":{"NORMAL":1,"POSITION":0,"TEXCOORD_0":2},"indices":3,"material":0,"mode":4}]}],"nodes":[{"children":[1],"name":"RootNode (gltf orientation matrix)","rotation":[-0.7071067811865475,0,0,0.7071067811865476]},{"children":[2],"name":"RootNode (model correction matrix)"},{"children":[3],"matrix":[1,0,0,0,0,0,1,0,0,-1,0,0,0,0,0,1],"name":"67866a058a114411946d32e91de9150f.fbx"},{"children":[4],"name":"RootNode"},{"children":[5],"matrix":[1,0,0,0,0,2.220446049250313e-16,-1,0,0,1,2.220446049250313e-16,0,0,0,0,1],"name":"Dino"},{"mesh":0,"name":"Dino_Dino_0"}],"samplers":[{"magFilter":9729,"minFilter":9987,"wrapS":10497,"wrapT":10497}],"scene":0,"scenes":[{"name":"OSG_Scene","nodes":[0]}],"textures":[{"sampler":0,"source":0}]}